<svg xmlns="http://www.w3.org/2000/svg" viewBox="0 -0.5 32 32" shape-rendering="crispEdges">
<metadata>Made with Pixels to Svg https://codepen.io/shshaw/pen/XbxvNj</metadata>
<path stroke="#000000" d="M5 0h3M15 0h2M24 0h3M3 1h2M8 1h7M17 1h7M27 1h2M2 2h1M29 2h1M1 3h1M30 3h1M0 4h1M31 4h1M0 5h1M31 5h1M0 6h1M3 6h26M31 6h1M0 7h1M3 7h3M26 7h3M31 7h1M0 8h1M3 8h2M27 8h2M31 8h1M1 9h1M4 9h1M27 9h1M30 9h1M1 10h1M4 10h2M27 10h1M30 10h1M1 11h1M4 11h6M23 11h5M30 11h1M2 12h1M5 12h3M25 12h2M29 12h1M2 13h1M5 13h2M26 13h1M29 13h1M2 14h4M26 14h4M2 15h1M5 15h1M26 15h1M29 15h1M1 16h1M30 16h1M0 17h1M31 17h1M0 18h1M31 18h1M0 19h1M31 19h1M0 20h10M12 20h8M22 20h10M0 21h1M9 21h1M22 21h1M31 21h1M0 22h1M9 22h1M22 22h1M31 22h1M0 23h1M10 23h1M21 23h1M31 23h1M0 24h1M11 24h1M20 24h1M31 24h1M0 25h1M31 25h1M0 26h1M31 26h1M0 27h1M31 27h1M0 28h1M31 28h1M0 29h1M31 29h1M0 30h1M31 30h1M0 31h32" />
<path stroke="#ffa800" d="M5 1h1M26 1h1M3 2h1M28 2h1M2 3h1M29 3h1M1 6h2M29 6h2M1 7h1M30 7h1M30 18h1M1 19h30M1 21h1M29 21h1M3 29h3M25 29h3" />
<path stroke="#ffffff" d="M6 1h2M15 1h2M24 1h2M4 2h2M15 2h2M26 2h2M3 3h2M15 3h2M27 3h2M2 4h28M1 5h1M30 5h1M12 11h2M17 11h1M12 12h2M15 13h2M15 14h2M20 14h1M11 15h2M21 15h1M11 16h2M1 18h15M1 22h1M20 22h1M29 22h1M1 23h1M18 23h2M29 23h1M1 24h1M29 24h1" />
<path stroke="#273227" d="M6 2h1M17 2h1M25 2h1M5 3h1M17 3h1M26 3h1M6 7h20M5 8h22M5 9h22M6 10h6M21 10h6M7 13h1M6 14h1M25 14h1M3 21h1M28 21h1M3 22h1M28 22h1M3 23h1M28 23h1M3 24h1M28 24h1M3 25h1M28 25h1M3 26h1M28 26h1M3 27h1M28 27h1M3 28h1M28 28h1" />
<path stroke="#002880" d="M7 2h1M14 2h1M24 2h1M14 3h1M4 22h4M14 22h4M24 22h4M4 23h4M24 23h4M4 24h5M23 24h5M4 25h6M22 25h6M4 26h8M20 26h8M4 27h24M4 28h24" />
<path stroke="#004ee6" d="M8 2h6M18 2h6M6 3h8M18 3h8" />
<path stroke="#ffe400" d="M1 4h1M30 4h1M2 5h28M14 11h3M18 11h1M15 12h3M11 13h1M14 13h1M17 13h1M19 13h2M11 14h2M14 14h1M17 14h1M19 14h1M21 14h1M8 15h3M13 15h5M20 15h1M22 15h1M8 16h3M13 16h1M16 16h3M20 16h2M16 18h14M13 23h5M1 25h1M29 25h1M1 26h1M29 26h1M1 27h1M29 27h1M1 28h1M29 28h1M1 29h1M9 29h13M29 29h1" />
<path stroke="#e25a00" d="M2 7h1M29 7h1M1 8h2M29 8h2M2 9h1M29 9h1M2 10h1M12 10h2M20 10h1M29 10h1M2 11h1M10 11h2M22 11h1M29 11h1M3 12h1M8 12h1M23 12h2M28 12h1M3 13h1M25 13h1M28 13h1M5 16h1M26 16h1M4 17h2M26 17h2M11 20h1M20 20h1M11 21h1M20 21h1M12 22h1M19 22h1M12 24h2M18 24h2" />
<path stroke="#804000" d="M3 9h1M28 9h1M3 10h1M28 10h1M3 11h1M28 11h1M4 12h1M27 12h1M4 13h1M27 13h1M3 15h2M27 15h2M4 16h1M27 16h1M3 17h1M28 17h1" />
<path stroke="#ffb400" d="M14 10h2M19 11h1M9 12h2M14 12h1M18 12h4M10 13h1M12 13h2M18 13h1M21 13h1M23 13h2M8 14h1M10 14h1M13 14h1M18 14h1M22 14h2M7 15h1M18 15h2M23 15h2M7 16h1M14 16h2M19 16h1M22 16h3M8 17h16M10 20h1M21 20h1M10 21h1M21 21h1M11 22h1M12 23h1" />
<path stroke="#ff8000" d="M16 10h4M20 11h2M11 12h1M22 12h1M8 13h2M22 13h1M7 14h1M9 14h1M24 14h1M6 15h1M25 15h1M2 16h2M6 16h1M25 16h1M28 16h2M1 17h2M6 17h2M24 17h2M29 17h2M2 21h1M30 21h1M2 22h1M10 22h1M21 22h1M30 22h1M2 23h1M11 23h1M20 23h1M30 23h1M2 24h1M14 24h4M30 24h1M2 25h1M30 25h1M2 26h1M30 26h1M2 27h1M30 27h1M2 28h1M30 28h1M2 29h1M28 29h1M30 29h1M1 30h30" />
<path stroke="#3f0081" d="M4 21h5M12 21h8M23 21h5M8 22h1M13 22h1M18 22h1M23 22h1M8 23h2M22 23h2M9 24h2M21 24h2M10 25h12M12 26h8" />
<path stroke="#ffc149" d="M6 29h3M22 29h3" />
</svg>